STARTFONT 2.1
FONT jis.jis9600.24
SIZE 24 72 72
FONTBOUNDINGBOX 24 24 0 -3
STARTPROPERTIES 4
FONT_DESCENT 3
FONT_ASCENT 21
DEFAULT_CHAR 28
COPYRIGHT "Copyright (c) 1992 AT&T - All rights reserved."
ENDPROPERTIES
CHARS 176
STARTCHAR ch-28
ENCODING 28
SWIDTH 1000 0
DWIDTH 24 0
BBX 24 24 0 -3
BITMAP
002000
003800
083030
0ffff8
0c0030
0c0030
0c0030
0ffff0
0c0000
0c0000
0ffff0
0c0030
0c0030
0c0030
0ffff0
0c1830
001800
001806
ffffff
001800
001800
001800
001800
001800
ENDCHAR
STARTCHAR ch-33
ENCODING 33
SWIDTH 1000 0
DWIDTH 24 0
BBX 24 24 0 -3
BITMAP
418018
7fc07c
6183f0
61bf80
610180
630180
620180
620180
640180
620186
637fff
610180
618180
618180
618180
618180
618180
6f8180
630180
600180
600180
600180
600180
600180
ENDCHAR
STARTCHAR ch-40
ENCODING 40
SWIDTH 1000 0
DWIDTH 24 0
BBX 24 24 0 -3
BITMAP
432006
7fbfff
633000
633000
623000
66320c
6433fe
64330c
68330c
64330c
66330c
62330c
63330c
63330c
63333c
637318
636300
6f6300
664302
60c302
608302
610303
6003ff
6001fe
ENDCHAR
STARTCHAR ch-42
ENCODING 42
SWIDTH 1000 0
DWIDTH 24 0
BBX 24 24 0 -3
BITMAP
419006
7fdfff
619800
619800
611800
631800
62180c
621ffe
641a0c
621a0c
631a0c
611918
619918
619918
619930
6198b0
61b0e0
6fb040
6320e0
6061b0
604338
60861f
61180e
606006
ENDCHAR
STARTCHAR ch-46
ENCODING 46
SWIDTH 1000 0
DWIDTH 24 0
BBX 24 24 0 -3
BITMAP
418000
7fc00c
61bffe
618000
610000
630000
620000
620006
647fff
620c60
630c60
610c60
618c60
618c60
618c60
618c60
618c60
6f9860
631862
601862
601062
603063
60207f
60c03e
ENDCHAR
STARTCHAR ch-47
ENCODING 47
SWIDTH 1000 0
DWIDTH 24 0
BBX 24 24 0 -3
BITMAP
4301c0
7f8180
630180
630180
620180
660180
643980
643180
683180
64318c
6631fe
623180
633180
633180
633180
633180
633180
6f3180
663180
603180
603180
603186
61ffff
600000
ENDCHAR
STARTCHAR ch-50
ENCODING 50
SWIDTH 1000 0
DWIDTH 24 0
BBX 24 24 0 -3
BITMAP
418380
7fc300
618300
610300
630306
62ffff
620600
640600
620600
63060c
6107fe
61860c
61860c
61860c
61860c
61860c
6f8c0c
630c0c
600c1c
601818
601818
603038
6061f0
618060
ENDCHAR
STARTCHAR ch-59
ENCODING 59
SWIDTH 1000 0
DWIDTH 24 0
BBX 24 24 0 -3
BITMAP
419030
7fdff8
619830
631830
631830
621830
661830
641830
681ff0
641830
621830
631830
611830
619830
619830
619ff0
619830
6f9830
631830
601830
601830
601836
61ffff
600000
ENDCHAR
STARTCHAR ch-63
ENCODING 63
SWIDTH 1000 0
DWIDTH 24 0
BBX 24 24 0 -3
BITMAP
430000
7f8006
637fff
630018
620018
660018
642198
643fd8
683198
643198
663198
623198
633198
633198
633f98
633198
633018
6f0018
660018
600018
600018
600018
6000f8
600030
ENDCHAR
STARTCHAR ch-64
ENCODING 64
SWIDTH 1000 0
DWIDTH 24 0
BBX 24 24 0 -3
BITMAP
4181c0
7fc180
618180
632180
622186
663fff
646006
686004
64ce08
66cc00
620c10
630c1c
630c38
630c70
630cc0
630f00
630c00
6f0c00
660c04
600c04
600c04
600c06
600ffe
6007fc
ENDCHAR
STARTCHAR ch-66
ENCODING 66
SWIDTH 1000 0
DWIDTH 24 0
BBX 24 24 0 -3
BITMAP
4301c0
7f8180
630180
630180
622186
663fff
643186
643184
683188
643180
663198
623ffc
633418
633418
633230
633230
633160
6f61c0
6660c0
6041e0
60c338
60861f
61180e
606006
ENDCHAR
STARTCHAR ch-68
ENCODING 68
SWIDTH 1000 0
DWIDTH 24 0
BBX 24 24 0 -3
BITMAP
20c41c
3fe718
30c618
318618
318c18
330c18
320c1a
341bff
321818
333818
315a18
319918
319998
319998
319998
319818
379818
331818
301818
301818
301818
301818
3018f8
301830
ENDCHAR
STARTCHAR ch-75
ENCODING 75
SWIDTH 1000 0
DWIDTH 24 0
BBX 24 24 0 -3
BITMAP
460006
7f7fff
660180
660180
660180
64098c
640ffe
68c98c
68c98c
64c98c
64c94c
66cb2c
66ca3c
66cc3c
66c80c
66c80c
66c80c
7ec80c
6cc83c
60c818
60c000
60c006
60ffff
60c000
ENDCHAR
STARTCHAR ch-76
ENCODING 76
SWIDTH 1000 0
DWIDTH 24 0
BBX 24 24 0 -3
BITMAP
418006
7fffff
618180
618180
610100
630100
62120c
621ffe
64180c
62180c
63180c
61180c
61980c
61980c
619ffc
61980c
61980c
6f980c
63180c
60180c
60180c
60180c
601ffc
60180c
ENDCHAR
STARTCHAR ch-77
ENCODING 77
SWIDTH 1000 0
DWIDTH 24 0
BBX 24 24 0 -3
BITMAP
418800
7fce00
618c30
618ff8
631830
621460
6622c0
644180
6803c0
640670
660c3f
62181e
6361c6
630180
630198
637ffc
631980
6f1980
661986
61ffff
600180
600180
600180
600180
ENDCHAR
STARTCHAR ch-79
ENCODING 79
SWIDTH 1000 0
DWIDTH 24 0
BBX 24 24 0 -3
BITMAP
418380
7fc300
618300
618306
617fff
630600
620600
620400
640c0c
620ffe
630c0c
611c0c
619c0c
61affc
61cc0c
618c0c
618c0c
6f8ffc
630c0c
600c0c
600c0c
600c0c
600c7c
600c18
ENDCHAR
STARTCHAR ch-80
ENCODING 80
SWIDTH 1000 0
DWIDTH 24 0
BBX 24 24 0 -3
BITMAP
419018
7fdffc
619818
619818
611818
631818
621ff8
621818
641818
621818
631818
611ff8
619884
619887
619886
61984c
619850
6f9860
631820
6019b0
601e18
61f81f
60e00e
608006
ENDCHAR
STARTCHAR ch-91
ENCODING 91
SWIDTH 1000 0
DWIDTH 24 0
BBX 24 24 0 -3
BITMAP
4338e0
7fb0c0
6330c0
6230c4
6634ce
643ed8
6430e0
6830c2
6430c2
6630c3
63fcff
63707e
634000
630380
630300
6f0300
660318
607ffc
600300
600300
600300
600306
61ffff
600000
ENDCHAR
STARTCHAR ch-92
ENCODING 92
SWIDTH 1000 0
DWIDTH 24 0
BBX 24 24 0 -3
BITMAP
430380
7f8300
630300
630306
62ffff
660300
640300
642310
683318
643318
662310
627338
635b2c
639b46
630786
630680
6306c0
6f0c40
660c60
601830
601838
60301f
60600e
618006
ENDCHAR
STARTCHAR ch-93
ENCODING 93
SWIDTH 1000 0
DWIDTH 24 0
BBX 24 24 0 -3
BITMAP
430380
7f8300
630300
630306
62ffff
660300
642308
64f33c
682308
642308
662308
625314
635b14
638f27
630782
630680
6306c0
6f0c40
660c60
601830
601838
60301f
60600e
618006
ENDCHAR
STARTCHAR ch-94
ENCODING 94
SWIDTH 1000 0
DWIDTH 24 0
BBX 24 24 0 -3
BITMAP
430338
7f8fb0
637c30
630c30
620c30
660c30
640c36
64ffff
680c30
640830
661830
621030
632030
634380
630300
63030c
637ffe
6f0300
660300
600300
600300
600306
61ffff
600000
ENDCHAR
STARTCHAR ch-95
ENCODING 95
SWIDTH 1000 0
DWIDTH 24 0
BBX 24 24 0 -3
BITMAP
4301c0
7f8180
630180
63398c
6231fe
663180
643180
643180
683186
64ffff
660000
6211c0
631d98
631986
633183
632183
634190
6f079c
660338
600070
6000e0
600380
600e00
607000
ENDCHAR
STARTCHAR ch-98
ENCODING 98
SWIDTH 1000 0
DWIDTH 24 0
BBX 24 24 0 -3
BITMAP
4301c0
7f8180
632180
632186
627fff
666006
64c004
64c018
683ffc
640000
660000
620006
63ffff
630c60
630c60
630c60
630c60
6f0c60
661c62
601862
601862
603063
60607f
61803e
ENDCHAR
STARTCHAR ch-99
ENCODING 99
SWIDTH 1000 0
DWIDTH 24 0
BBX 24 24 0 -3
BITMAP
4181c0
7fc180
618186
637fff
620180
66218c
643ffe
68318c
64318c
66318c
623ffc
63318c
63318c
63318c
633ffc
63318c
6f0180
660186
60ffff
600180
600180
600180
600180
600180
ENDCHAR
STARTCHAR ch-100
ENCODING 100
SWIDTH 1000 0
DWIDTH 24 0
BBX 24 24 0 -3
BITMAP
430300
7f8300
630680
630680
620c40
660c60
641830
68101c
643fff
664306
628300
630300
630306
63ffff
630300
630300
6f4320
667318
60630c
60c30e
618306
620306
601f00
600600
ENDCHAR
STARTCHAR ch-101
ENCODING 101
SWIDTH 1000 0
DWIDTH 24 0
BBX 24 24 0 -3
BITMAP
418200
7fc380
61830c
6187fe
63060c
620c18
660818
641030
682020
640040
663a06
6233ff
633306
633306
633306
633306
6333fe
6f3306
663306
603306
603306
6033fe
603306
603306
ENDCHAR
STARTCHAR ch-102
ENCODING 102
SWIDTH 1000 0
DWIDTH 24 0
BBX 24 24 0 -3
BITMAP
430380
7f8300
630304
637ffe
620300
660308
643ffc
640300
680302
64ffff
660600
620618
63061a
63ffff
630c18
630c18
630a18
6f1918
661198
603198
602018
604018
6180f8
600030
ENDCHAR
STARTCHAR ch-106
ENCODING 106
SWIDTH 1000 0
DWIDTH 24 0
BBX 24 24 0 -3
BITMAP
430380
7f8300
630300
62030c
667ffe
640020
641038
680830
640c60
660c40
620086
63ffff
630000
630000
632018
633ffc
6f3018
663018
603018
603018
603018
603ff8
603018
603018
ENDCHAR
STARTCHAR ch-108
ENCODING 108
SWIDTH 1000 0
DWIDTH 24 0
BBX 24 24 0 -3
BITMAP
430000
7f0006
63ffff
624400
664400
66440c
6447fe
647c8c
68448c
64448c
664488
624458
637c58
634450
634470
634420
634470
6f4450
664c58
6074cc
61c48f
608486
600506
600400
ENDCHAR
STARTCHAR ch-112
ENCODING 112
SWIDTH 1000 0
DWIDTH 24 0
BBX 24 24 0 -3
BITMAP
418300
7fc700
618680
638e40
630c60
621838
66309f
646fce
698006
640060
663ff0
620060
6300c0
6300cc
633ffe
630000
630006
6f7fff
660600
600420
600818
60fffc
607e0e
604006
ENDCHAR
STARTCHAR ch-114
ENCODING 114
SWIDTH 1000 0
DWIDTH 24 0
BBX 24 24 0 -3
BITMAP
430038
7f81fc
631f80
630180
620180
660184
647ffe
641998
681998
641998
66199a
63ffff
631998
631998
631998
631998
631998
6f7ffe
660180
600180
600180
600186
60ffff
600000
ENDCHAR
STARTCHAR ch-115
ENCODING 115
SWIDTH 1000 0
DWIDTH 24 0
BBX 24 24 0 -3
BITMAP
430380
7f8300
630306
63ffff
620300
660300
647ff8
686318
646318
666318
627ff8
636318
636318
636318
637ff8
630700
6f0f80
660b40
601b20
603338
60631f
60c30e
630306
600300
ENDCHAR
STARTCHAR ch-117
ENCODING 117
SWIDTH 1000 0
DWIDTH 24 0
BBX 24 24 0 -3
BITMAP
430380
7f8300
630318
637ffc
620300
640300
640306
69ffff
641860
661c60
62307f
63683f
638e00
630c30
631ff8
631030
6f2860
664460
6186c0
600380
6006e0
600c7f
60301e
61c006
ENDCHAR
STARTCHAR ch-118
ENCODING 118
SWIDTH 1000 0
DWIDTH 24 0
BBX 24 24 0 -3
BITMAP
431000
7f9c00
631800
633006
623fff
665006
649806
691046
643fe6
662606
624606
630626
637ff6
630606
630606
634626
6f4626
664626
607fe6
604026
60000e
60000c
60007c
600018
ENDCHAR
STARTCHAR ch-119
ENCODING 119
SWIDTH 1000 0
DWIDTH 24 0
BBX 24 24 0 -3
BITMAP
418400
7fc700
61860c
630ffe
630c0c
62080c
66181c
641018
682038
6441f0
660060
620200
632706
63383f
633006
633006
633206
6f3f3e
663006
603006
603006
603006
603ffe
603006
ENDCHAR
STARTCHAR ch-120
ENCODING 120
SWIDTH 1000 0
DWIDTH 24 0
BBX 24 24 0 -3
BITMAP
418380
7fc300
618300
630318
627ffc
640300
680300
64030c
66fffe
630c60
630c60
631860
63187e
63303e
634380
630300
6f0318
667ffc
600300
600300
600300
600306
61ffff
600000
ENDCHAR
STARTCHAR ch-122
ENCODING 122
SWIDTH 1000 0
DWIDTH 24 0
BBX 24 24 0 -3
BITMAP
430300
7f8300
630680
630640
620c30
66181f
64600e
699fe6
680300
644318
667ffc
626318
636318
636318
636318
637ff8
636698
6f0680
660c40
600c60
601838
60301f
60600e
618006
ENDCHAR
STARTCHAR ch-125
ENCODING 125
SWIDTH 1000 0
DWIDTH 24 0
BBX 24 24 0 -3
BITMAP
419030
7fdff8
619830
631830
631ff0
661830
641830
681830
641ff0
660000
620006
63ffff
631800
63100c
631ffe
63324c
7f26cc
66448c
61898c
60110c
60221c
60c418
6018f8
600030
ENDCHAR
STARTCHAR ch-133
ENCODING 133
SWIDTH 1000 0
DWIDTH 24 0
BBX 24 24 0 -3
BITMAP
432018
7fbffc
633118
633118
623118
663ff8
643118
643118
683118
643ff8
663118
620100
634106
637fff
636106
636146
636126
6f7ff6
666e36
606836
606006
606006
60603e
60600c
ENDCHAR
STARTCHAR ch-134
ENCODING 134
SWIDTH 1000 0
DWIDTH 24 0
BBX 24 24 0 -3
BITMAP
430800
7f8e00
630c30
631ff8
621060
6628c0
644580
688300
640780
660cf0
62383f
63d38e
631b00
633318
633ffc
6f6300
664300
608318
617ffc
600300
600300
600306
63ffff
600000
ENDCHAR
STARTCHAR ch-136
ENCODING 136
SWIDTH 1000 0
DWIDTH 24 0
BBX 24 24 0 -3
BITMAP
43200c
7fbffe
63318c
63318c
62318c
663ffc
64318c
64318c
68318c
643ffc
66300c
620000
630006
63ffff
631908
63190e
63189c
6f18b0
661840
601860
601b38
60fc1f
60700e
604006
ENDCHAR
STARTCHAR ch-138
ENCODING 138
SWIDTH 1000 0
DWIDTH 24 0
BBX 24 24 0 -3
BITMAP
419040
7fcc70
618660
630640
620086
66ffff
640600
680c08
64180e
66340c
62c618
630b10
630b20
631180
6323c0
6345a0
6f85b0
660998
60119f
60218e
60c186
630300
601f00
600600
ENDCHAR
STARTCHAR ch-139
ENCODING 139
SWIDTH 1000 0
DWIDTH 24 0
BBX 24 24 0 -3
BITMAP
430400
7f8700
630606
637fff
620c00
660800
641ffc
6810c0
6420c0
665fff
628000
630000
631ffc
63180c
63180c
631ffc
6f180c
66180c
601ffc
60180c
60180c
60180c
60187c
601818
ENDCHAR
STARTCHAR ch-141
ENCODING 141
SWIDTH 1000 0
DWIDTH 24 0
BBX 24 24 0 -3
BITMAP
430200
7f8380
632318
633ffc
623018
663018
643ff8
643018
683018
643018
663ff8
620000
63000c
637ffe
630300
630300
630318
6f3ffc
660300
600300
600300
600306
60ffff
600000
ENDCHAR
STARTCHAR ch-142
ENCODING 142
SWIDTH 1000 0
DWIDTH 24 0
BBX 24 24 0 -3
BITMAP
419c70
7fd860
619864
639867
631f6e
621870
661862
641862
681b63
64fc7f
66703e
624200
630380
632318
633ffc
633018
633018
6f3018
663ff8
603018
603018
603018
603ff8
603018
ENDCHAR
STARTCHAR ch-143
ENCODING 143
SWIDTH 1000 0
DWIDTH 24 0
BBX 24 24 0 -3
BITMAP
4300e0
7f80c0
6300c6
629fff
666180
643180
64310c
6803fe
64030c
64070c
666bfc
67f30c
66630c
66630c
6663fc
66630c
7e630c
6c630c
60633c
606318
60d000
678fff
6303fe
620000
ENDCHAR
STARTCHAR ch-148
ENCODING 148
SWIDTH 1000 0
DWIDTH 24 0
BBX 24 24 0 -3
BITMAP
418006
7fffff
618000
639018
631ffc
621818
661818
641818
681ff8
640000
664006
627fff
636666
636666
636666
636c3e
637006
6f6006
666ff6
606186
606186
606186
60619e
60618c
ENDCHAR
STARTCHAR ch-149
ENCODING 149
SWIDTH 1000 0
DWIDTH 24 0
BBX 24 24 0 -3
BITMAP
43200c
7fbffe
63300c
63300c
62300c
663ffc
640000
640000
683ffc
64300c
66300c
623ffc
63300c
63300c
633ffc
63300c
63300c
6f300c
663ffc
600800
600e30
601c0c
603006
60c006
ENDCHAR
STARTCHAR ch-151
ENCODING 151
SWIDTH 1000 0
DWIDTH 24 0
BBX 24 24 0 -3
BITMAP
430200
7f8380
630300
63440c
627ffe
66630c
64630c
64630c
687ffc
64630c
66630c
62630c
637ffc
630180
631190
631d98
631990
6f19a4
6619a4
6031fe
6031a2
606183
60c1ff
6300fe
ENDCHAR
STARTCHAR ch-152
ENCODING 152
SWIDTH 1000 0
DWIDTH 24 0
BBX 24 24 0 -3
BITMAP
432010
7f901c
631818
630c30
620c20
660046
64ffff
640820
680e20
640c10
661818
62100c
63200f
634006
638000
633ffc
63324c
6f324c
66324c
60324c
60324c
60324c
60ffff
600000
ENDCHAR
STARTCHAR ch-153
ENCODING 153
SWIDTH 1000 0
DWIDTH 24 0
BBX 24 24 0 -3
BITMAP
4301c0
7f8180
631190
631d8c
623986
663187
646183
688180
683ffc
64300c
66300c
623ffc
63300c
63300c
633ffc
63318c
630180
7f2180
663990
60718c
606186
60c187
610f83
600300
ENDCHAR
STARTCHAR ch-155
ENCODING 155
SWIDTH 1000 0
DWIDTH 24 0
BBX 24 24 0 -3
BITMAP
432000
7fb800
63330c
623ffe
66628c
644688
64b450
691c60
68c830
64501c
66200f
665fe6
678000
660000
66000c
66fffe
660300
7e4300
6c7320
606318
60c30c
61830e
621f06
600600
ENDCHAR
STARTCHAR ch-156
ENCODING 156
SWIDTH 1000 0
DWIDTH 24 0
BBX 24 24 0 -3
BITMAP
4301c0
7f8180
63018c
637ffe
620820
660430
640620
680246
64ffff
660000
621ff8
631818
631818
631ff8
631818
631818
6f1ff8
660180
600186
60ffff
600180
600180
600180
600180
ENDCHAR
STARTCHAR ch-160
ENCODING 160
SWIDTH 1000 0
DWIDTH 24 0
BBX 24 24 0 -3
BITMAP
43001c
7f81fe
637fc8
63220e
62110c
661998
641990
64002c
683ffe
64000c
66000c
623ffc
63000c
63000c
633ffc
63000c
630100
6f0e88
664cc6
604cd3
60cc13
618c18
618ff8
6007f0
ENDCHAR
STARTCHAR ch-163
ENCODING 163
SWIDTH 1000 0
DWIDTH 24 0
BBX 24 24 0 -3
BITMAP
4321c8
7f918e
63198c
621988
660192
647fff
6407a0
680d90
640998
66118f
622186
634180
631018
631e1a
6333ff
6f2298
664698
60b498
601c9a
600bff
601018
602018
604018
618018
ENDCHAR
STARTCHAR ch-167
ENCODING 167
SWIDTH 1000 0
DWIDTH 24 0
BBX 24 24 0 -3
BITMAP
430008
7f440c
632318
632110
623022
6637ff
640060
6400c0
680184
640646
663064
62f8a8
633130
633668
6330ac
633126
633626
6f3026
6630e0
603060
606800
61c7ff
60c1fe
608000
ENDCHAR
STARTCHAR ch-168
ENCODING 168
SWIDTH 1000 0
DWIDTH 24 0
BBX 24 24 0 -3
BITMAP
4301c0
7f8186
631fff
62c100
666300
6462fe
640430
680830
6413ff
640000
666000
67f3fc
666204
6663fc
666204
6663fc
7e6204
6c6204
60623c
606218
60d000
678fff
6303fe
620000
ENDCHAR
STARTCHAR ch-170
ENCODING 170
SWIDTH 1000 0
DWIDTH 24 0
BBX 24 24 0 -3
BITMAP
430300
7f8300
630680
630640
620c30
66181c
64300f
64cfe6
680000
640000
664646
627f7f
634646
634646
634646
637e7e
630000
6f1020
661c38
601830
603668
602244
604086
618106
ENDCHAR
STARTCHAR ch-176
ENCODING 176
SWIDTH 1000 0
DWIDTH 24 0
BBX 24 24 0 -3
BITMAP
43200c
7fbffe
63300c
63300c
623ffc
66300c
64300c
643ffc
680810
640c18
6658b0
622040
633468
630810
631224
637ffe
633162
6f0000
660000
604488
604444
60cc66
618c63
618c63
ENDCHAR
STARTCHAR ch-177
ENCODING 177
SWIDTH 1000 0
DWIDTH 24 0
BBX 24 24 0 -3
BITMAP
430038
7f81fc
633f08
63118c
620890
663ffc
640100
640100
687ffe
640000
663ffc
62000c
63000c
633ffc
63000c
63000c
633ffc
6f0100
6606c8
602646
602613
60661b
60c7f8
60c3f0
ENDCHAR
STARTCHAR ch-178
ENCODING 178
SWIDTH 1000 0
DWIDTH 24 0
BBX 24 24 0 -3
BITMAP
430380
7fa310
633b0c
633306
626343
664373
648fe0
640380
680600
641ffc
66f880
621ff8
631880
631880
631ff8
631880
631886
6f1fff
660006
602566
606526
60c50c
60c07c
600018
ENDCHAR
STARTCHAR ch-180
ENCODING 180
SWIDTH 1000 0
DWIDTH 24 0
BBX 24 24 0 -3
BITMAP
431c60
7f9846
63187f
62ff40
664440
64267e
642406
680806
68ff46
64007e
640040
667e40
66427e
664240
667e40
66427e
664240
7e7e40
6c427e
604240
604242
604243
604e7f
60463e
ENDCHAR
STARTCHAR ch-182
ENCODING 182
SWIDTH 1000 0
DWIDTH 24 0
BBX 24 24 0 -3
BITMAP
001c00
001800
001830
0ffff8
001830
001830
001836
ffffff
001830
001830
001830
0ffff0
001820
101838
0c1870
071840
033c80
00da00
039980
0e18e0
7c187e
30183c
20f80c
003000
ENDCHAR
STARTCHAR ch-183
ENCODING 183
SWIDTH 1000 0
DWIDTH 24 0
BBX 24 24 0 -3
BITMAP
0701c0
060180
06618c
fffffe
06018c
06018c
06618c
7fffff
00018c
00018c
7fc18c
001ffc
000180
ffe188
06118e
468d9c
7645a0
6661c0
6663a0
460db0
46799c
86318f
1e2786
0c0300
ENDCHAR
STARTCHAR ch-184
ENCODING 184
SWIDTH 1000 0
DWIDTH 24 0
BBX 24 24 0 -3
BITMAP
0701c0
060180
06318c
fffffe
0e018c
1f018c
16c18c
267fff
46618c
86018c
00018c
7fcffc
000180
001188
ffe98e
060d9c
26cda0
3661c0
3663a0
660db0
46399c
86118f
1e0786
0c0300
ENDCHAR
STARTCHAR ch-185
ENCODING 185
SWIDTH 1000 0
DWIDTH 24 0
BBX 24 24 0 -3
BITMAP
020100
0381c0
030180
070300
060200
0c040c
0ffffe
1c0c00
1c0c00
2c0c00
4c0c18
8ffffc
0c0c00
0c0c00
0c0c00
0c0c18
0ffffc
0c0c00
0c0c00
0c0c00
0c0c00
0c0c06
0fffff
0c0000
ENDCHAR
STARTCHAR ch-187
ENCODING 187
SWIDTH 1000 0
DWIDTH 24 0
BBX 24 24 0 -3
BITMAP
020400
038700
070600
060818
0ffffc
1c1800
2c1800
4ffff0
8c1800
0c1800
0ffff0
0c1800
0c180c
0ffffe
0c0000
000060
3ffff0
0101c0
008380
006e00
003800
00ef00
0783ff
f8007e
ENDCHAR
STARTCHAR ch-188
ENCODING 188
SWIDTH 1000 0
DWIDTH 24 0
BBX 24 24 0 -3
BITMAP
040400
070700
060600
0c0808
0ffffc
1c1800
1c1810
2ffff8
4c1800
8c1810
0ffff8
0c1800
0c1804
0ffffe
0c0000
001c00
001806
ffffff
001800
001800
001800
001800
001800
001800
ENDCHAR
STARTCHAR ch-192
ENCODING 192
SWIDTH 1000 0
DWIDTH 24 0
BBX 24 24 0 -3
BITMAP
001c00
001800
021860
039818
07190e
0e19c7
1c1b83
307f00
c01c00
003900
006380
018418
07fffc
0e0c00
360c00
c7fff0
060c00
060c00
07fff0
060c00
060c00
060c06
07ffff
060000
ENDCHAR
STARTCHAR ch-193
ENCODING 193
SWIDTH 1000 0
DWIDTH 24 0
BBX 24 24 0 -3
BITMAP
200006
3fffff
300000
308420
30e738
30c630
30c642
318fff
318c60
331c60
331c60
372c64
3b4ffe
330c60
330c60
330c60
230c64
230ffe
630c60
430c60
430c60
830c62
030fff
030c00
ENDCHAR
STARTCHAR ch-196
ENCODING 196
SWIDTH 1000 0
DWIDTH 24 0
BBX 24 24 0 -3
BITMAP
0e0420
0c0738
0c0630
0c0620
0ccc46
ffefff
0c1c60
0c1c60
0c2c60
084c64
1a0ffe
1b8c60
1b0c60
130c60
130c60
320c64
220ffe
260c60
648c60
444c60
846c60
3fec66
1c6fff
100c00
ENDCHAR
STARTCHAR ch-197
ENCODING 197
SWIDTH 1000 0
DWIDTH 24 0
BBX 24 24 0 -3
BITMAP
000400
006720
7ff638
198630
198620
198446
198fff
198c60
198c60
fffc60
039c6c
03affe
078c60
058c60
0d8c60
098c6c
198ffe
118c60
218c60
c18c60
018c60
018c66
0f8fff
030c00
ENDCHAR
STARTCHAR ch-198
ENCODING 198
SWIDTH 1000 0
DWIDTH 24 0
BBX 24 24 0 -3
BITMAP
020400
038700
030600
060830
0ffff8
1c0800
3c0800
cfffe0
0c0800
0c0800
0fffe0
0c0800
0c0818
0ffffc
0c0000
001c00
001806
ffffff
01d900
0398c0
061870
18183f
e0180e
001800
ENDCHAR
STARTCHAR ch-199
ENCODING 199
SWIDTH 1000 0
DWIDTH 24 0
BBX 24 24 0 -3
BITMAP
000006
ffffff
000000
100018
1ffffc
180018
180018
180018
1ffff8
184100
1871c0
18618c
18fffe
18c100
19c100
1afff8
34c100
30c100
20fff8
60c100
40c100
80c106
00ffff
00c000
ENDCHAR
STARTCHAR ch-201
ENCODING 201
SWIDTH 1000 0
DWIDTH 24 0
BBX 24 24 0 -3
BITMAP
200400
380720
300638
300c30
318c60
7fd84c
6c1ffe
4c3840
8c5840
0c9840
0c1848
ffdffc
0c1840
0c1840
0c1840
1a1848
191ffc
191840
119840
319840
219840
401846
801fff
001800
ENDCHAR
STARTCHAR ch-203
ENCODING 203
SWIDTH 1000 0
DWIDTH 24 0
BBX 24 24 0 -3
BITMAP
020400
038700
070618
0ffffc
1c0c00
3c0c10
cffff8
0c0c00
0c0c10
0ffff8
0c0c00
0c0c04
0ffffe
000000
20c20c
3fe3fe
30c30c
30c30c
30c30c
30ff0c
30c30c
30000c
30007c
300018
ENDCHAR
STARTCHAR ch-204
ENCODING 204
SWIDTH 1000 0
DWIDTH 24 0
BBX 24 24 0 -3
BITMAP
000100
0d81d0
09019c
090198
090310
092322
093bff
697630
49c630
490e30
4f0e34
4917fe
492630
490630
490630
490634
4907fe
492630
492630
492630
4f3630
f9f632
60e7ff
400600
ENDCHAR
STARTCHAR ch-205
ENCODING 205
SWIDTH 1000 0
DWIDTH 24 0
BBX 24 24 0 -3
BITMAP
001c00
001800
001806
ffffff
040400
060720
0c0630
480c20
31084c
199ffe
1b1840
063840
045848
081ffc
131840
ff9840
631848
061ffc
061840
0c1840
081840
101846
201fff
c01800
ENDCHAR
STARTCHAR ch-206
ENCODING 206
SWIDTH 1000 0
DWIDTH 24 0
BBX 24 24 0 -3
BITMAP
000400
430720
7f8638
630c30
630c60
63184c
631ffe
7f3840
635840
639840
631848
631ffc
631840
7f1840
631840
631848
631ffc
631840
63d840
7f1840
fc1840
701846
401fff
001800
ENDCHAR
STARTCHAR ch-209
ENCODING 209
SWIDTH 1000 0
DWIDTH 24 0
BBX 24 24 0 -3
BITMAP
1c0200
180390
19831c
ffc318
198610
19a426
19afff
31ec60
30fc60
601c60
872c6c
064ffe
060c60
060c60
ffec60
0e0c6c
0f0ffe
1ecc60
166c60
366c60
660c66
860fff
060c00
060c00
ENDCHAR
STARTCHAR ch-213
ENCODING 213
SWIDTH 1000 0
DWIDTH 24 0
BBX 24 24 0 -3
BITMAP
201880
3ffce8
3018cc
301888
311998
311912
37d9ff
311b10
311d10
311910
37d914
3019fe
301910
37d910
345910
345914
3459fe
345910
37d910
201910
201910
601912
40f9ff
803100
ENDCHAR
STARTCHAR ch-214
ENCODING 214
SWIDTH 1000 0
DWIDTH 24 0
BBX 24 24 0 -3
BITMAP
418420
7fc738
618630
618620
618c4c
618ffe
7f8c60
0c1c60
0c1c60
4cac68
7fcffc
4c8c60
4c8c60
4c8c60
4c8c68
7f8ffc
4c0c60
0c0c60
0c8c60
0c8c60
ffcc66
78cfff
40cc00
000c00
ENDCHAR
STARTCHAR ch-217
ENCODING 217
SWIDTH 1000 0
DWIDTH 24 0
BBX 24 24 0 -3
BITMAP
080200
0c8320
18c630
118464
3feffe
711620
b10620
3fe7fc
310620
310620
3fe7fc
310620
310626
3ff7ff
300600
000060
3ffff0
0101c0
00c380
006600
003c00
00e780
0781ff
f8001e
ENDCHAR
STARTCHAR ch-219
ENCODING 219
SWIDTH 1000 0
DWIDTH 24 0
BBX 24 24 0 -3
BITMAP
100100
1c01d0
18619c
3ff198
206310
486226
a967ff
296620
3f6e20
10d620
23c624
4187fe
100620
1c0620
186620
3ff624
2067fe
486620
a96620
296620
3f6620
10c626
23c7ff
418600
ENDCHAR
STARTCHAR ch-220
ENCODING 220
SWIDTH 1000 0
DWIDTH 24 0
BBX 24 24 0 -3
BITMAP
070200
060390
06331c
fffb18
000310
208626
30c7ff
30ce20
2d9620
656620
422624
8007fe
060620
063620
fffe20
0e0624
0f07fe
1ec620
166620
363620
663620
860626
0607ff
060600
ENDCHAR
STARTCHAR ch-226
ENCODING 226
SWIDTH 1000 0
DWIDTH 24 0
BBX 24 24 0 -3
BITMAP
070110
0601dc
063198
fff910
010222
2da3ff
222620
252a20
28b220
202224
3fe3fe
030220
423220
7ffa20
643220
653224
64b3fe
67b220
7cb220
683220
603220
603222
60f3ff
606200
ENDCHAR
STARTCHAR ch-227
ENCODING 227
SWIDTH 1000 0
DWIDTH 24 0
BBX 24 24 0 -3
BITMAP
1dc200
198390
19931c
fffb18
198210
198226
0007ff
7fe620
462620
462e20
463624
7fe7fe
060620
060620
7fe620
060624
0607fe
fff620
060620
0d0620
0cc620
186626
3067ff
c00600
ENDCHAR
STARTCHAR ch-232
ENCODING 232
SWIDTH 1000 0
DWIDTH 24 0
BBX 24 24 0 -3
BITMAP
000000
000006
ffffff
001800
001800
20180c
3ffffe
30180c
30180c
341a0c
33198c
3198cc
3198cc
30180c
30180c
341a0c
33198c
3198cc
3198cc
30180c
30180c
30180c
30187c
301818
ENDCHAR
STARTCHAR ch-234
ENCODING 234
SWIDTH 1000 0
DWIDTH 24 0
BBX 24 24 0 -3
BITMAP
000030
0ffff8
001800
101806
1fffff
301806
301804
6799e8
601800
001800
0f99f0
001800
001800
000018
1ffffc
000018
000018
000018
0ffff8
000018
000018
000018
1ffff8
000018
ENDCHAR
STARTCHAR ch-235
ENCODING 235
SWIDTH 1000 0
DWIDTH 24 0
BBX 24 24 0 -3
BITMAP
000060
07fff0
101800
101806
3fffff
301806
601804
6799e8
001800
001800
0799e0
001800
001800
000006
ffffff
003000
003000
003f00
0031e0
003070
003030
003000
003000
003000
ENDCHAR
STARTCHAR ch-240
ENCODING 240
SWIDTH 1000 0
DWIDTH 24 0
BBX 24 24 0 -3
BITMAP
000060
07fff0
101800
101806
3fffff
301806
601804
6f99f0
001800
001800
1f99f8
001800
010100
01c080
038060
060038
0fffdf
3060c6
c0c0c0
00c0c0
0180c0
030180
060f80
180300
ENDCHAR
STARTCHAR ch-242
ENCODING 242
SWIDTH 1000 0
DWIDTH 24 0
BBX 24 24 0 -3
BITMAP
000018
1ffffc
201800
201806
7fffff
601806
c01804
cf99e8
001800
001800
1f99f8
001800
000000
000030
1ffff8
000000
000006
ffffff
00c100
0080c0
010070
3fffb8
1fc018
100018
ENDCHAR
STARTCHAR ch-246
ENCODING 246
SWIDTH 1000 0
DWIDTH 24 0
BBX 24 24 0 -3
BITMAP
000030
0ffff8
101800
101806
3fffff
301806
601804
6799e8
001800
001800
0fb9f0
007400
00c300
0181e0
067e7f
18000e
e00000
0ffff0
003030
003030
003030
0031f0
003060
003000
ENDCHAR
STARTCHAR ch-247
ENCODING 247
SWIDTH 1000 0
DWIDTH 24 0
BBX 24 24 0 -3
BITMAP
000030
0ffff8
201800
201806
7fffff
601806
c01804
cf99f0
001800
001800
0f99f0
001800
000000
100018
1ffffc
181818
181818
181818
1ffff8
181818
181818
181818
1ffff8
180018
ENDCHAR
STARTCHAR ch-249
ENCODING 249
SWIDTH 1000 0
DWIDTH 24 0
BBX 24 24 0 -3
BITMAP
000030
0ffff8
201800
201806
7fffff
601806
cf99f4
c01800
0f99f0
001800
038000
030030
07fff8
0c0030
180030
3ffc30
c00c30
000c30
0ffc60
0c01e4
0c00c4
0c0006
0ffffe
07fffc
ENDCHAR
STARTCHAR ch-251
ENCODING 251
SWIDTH 1000 0
DWIDTH 24 0
BBX 24 24 0 -3
BITMAP
000030
0ffff8
203000
203006
7fffff
603006
c03004
df33e8
003000
003000
1f33e0
003000
000000
1ffff0
183030
183030
1ffff0
183030
183032
1ffff2
003002
003003
003fff
001ffe
ENDCHAR
STARTCHAR ch-256
ENCODING 256
SWIDTH 1000 0
DWIDTH 24 0
BBX 24 24 0 -3
BITMAP
000030
0ffff8
201800
201806
7fffff
601806
c01804
cf99f0
001800
001800
0f99f0
001800
000006
ffffff
006000
20400c
3ffffe
30c30c
30c30c
30c30c
30c30c
30c30c
30c37c
300018
ENDCHAR
STARTCHAR ch-260
ENCODING 260
SWIDTH 1000 0
DWIDTH 24 0
BBX 24 24 0 -3
BITMAP
000030
0ffff8
201800
201806
7fffff
601806
cf99f4
c01800
0f99f0
000020
181c30
071860
031880
0ffff0
0c0030
0c0030
0ffff0
0c0030
0c0030
0ffff0
0c0030
0c0030
0c01f0
0c0060
ENDCHAR
STARTCHAR ch-262
ENCODING 262
SWIDTH 1000 0
DWIDTH 24 0
BBX 24 24 0 -3
BITMAP
000030
0ffff8
201800
201806
7fffff
601806
cf99f4
c01800
0f99f0
001800
060018
ff00fc
0c1fc0
1800c0
3300c2
7fbfff
0300c0
2600c0
1600c4
0c1ffe
0a0000
118000
20ffff
c03ffe
ENDCHAR
STARTCHAR ch-263
ENCODING 263
SWIDTH 1000 0
DWIDTH 24 0
BBX 24 24 0 -3
BITMAP
000060
0ffff0
201800
201806
7fffff
601806
cf9be4
c01808
0f9be0
001800
200018
3ffffc
300000
300000
33ffe0
300000
30000c
3ffffe
318420
218270
618180
5ff8f0
8f803f
08000e
ENDCHAR
STARTCHAR ch-264
ENCODING 264
SWIDTH 1000 0
DWIDTH 24 0
BBX 24 24 0 -3
BITMAP
000030
0ffff8
201800
201806
7fffff
601806
cf99f4
c01800
0f99f0
001800
3001c0
0e0186
06ffff
c00180
38218c
183ffe
02318c
0c318c
f8318c
70318c
3031bc
303198
380180
180180
ENDCHAR
STARTCHAR ch-266
ENCODING 266
SWIDTH 1000 0
DWIDTH 24 0
BBX 24 24 0 -3
BITMAP
000018
0ffffc
101800
101806
3fffff
301806
601804
6799e8
001800
0f99f0
001800
000000
1ffff8
000000
000000
7ffffe
006600
106620
0c6638
066630
066620
006646
ffffff
000000
ENDCHAR
STARTCHAR ch-269
ENCODING 269
SWIDTH 1000 0
DWIDTH 24 0
BBX 24 24 0 -3
BITMAP
000030
0ffff8
201800
201806
7fffff
601806
cf99f4
c01800
0f99f0
001800
020400
038700
070618
0ffffc
1c0c00
3c0c10
cffff8
0c0c00
0c0c10
0ffff8
0c0c00
0c0c06
0fffff
0c0000
ENDCHAR
STARTCHAR ch-270
ENCODING 270
SWIDTH 1000 0
DWIDTH 24 0
BBX 24 24 0 -3
BITMAP
000030
0ffff8
201800
201806
7fffff
601806
cf99f4
c01800
0f99f0
000000
001810
1ffff8
010080
008102
ffffff
006000
00c004
7ffffe
030180
060300
0fe600
003fc0
01e0f8
3e0018
ENDCHAR
STARTCHAR ch-271
ENCODING 271
SWIDTH 1000 0
DWIDTH 24 0
BBX 24 24 0 -3
BITMAP
000030
0ffff8
201800
201806
7fffff
601806
cf99f4
c01800
001800
0f99f0
001800
000000
00c304
7fc3fe
00c300
00c304
7fc3fe
00c300
00c300
ff8302
7983ff
430300
060300
180300
ENDCHAR
STARTCHAR ch-273
ENCODING 273
SWIDTH 1000 0
DWIDTH 24 0
BBX 24 24 0 -3
BITMAP
000030
0ffff8
201800
201806
7fffff
601806
cf99f4
c01800
0f99f0
001800
301800
0e0380
060306
c003ff
380300
180300
02430c
0c7ffe
f8600c
70600c
30600c
30600c
387ffc
18600c
ENDCHAR
STARTCHAR ch-275
ENCODING 275
SWIDTH 1000 0
DWIDTH 24 0
BBX 24 24 0 -3
BITMAP
000030
0ffff8
201800
201806
7fffff
601806
cf99f4
c01800
0f99f0
000000
08c030
0fe7f8
0c0030
0c0030
0fe7f0
0c0030
0c0030
0ffff0
010300
01c302
038302
070303
1c03ff
e001fe
ENDCHAR
STARTCHAR ch-278
ENCODING 278
SWIDTH 1000 0
DWIDTH 24 0
BBX 24 24 0 -3
BITMAP
000030
0ffff8
201800
201806
7fffff
601806
cf99f4
c01800
001800
0f99f0
001800
000000
0700e0
0630c6
ffffff
0e01c0
1f03e0
16c2d0
3666d8
2664cc
4608cf
8610c6
0600c0
0600c0
ENDCHAR
STARTCHAR ch-281
ENCODING 281
SWIDTH 1000 0
DWIDTH 24 0
BBX 24 24 0 -3
BITMAP
000030
0ffff8
201800
201806
7fffff
601806
cf99f4
c01800
0f99f0
001800
0300c0
7ffffe
0300c0
001800
1ffff8
181818
181818
ffffff
003400
006200
00c180
0380f0
0e003f
f0000e
ENDCHAR
STARTCHAR ch-284
ENCODING 284
SWIDTH 1000 0
DWIDTH 24 0
BBX 24 24 0 -3
BITMAP
000030
0ffff8
201800
201806
7fffff
601806
c01804
cf99f0
001800
1f99f8
001800
070000
06040c
0667fe
fff60c
0e060c
1f07fc
16c60c
36660c
2667fc
46060c
86060c
0607fc
06060c
ENDCHAR
STARTCHAR ch-286
ENCODING 286
SWIDTH 1000 0
DWIDTH 24 0
BBX 24 24 0 -3
BITMAP
000030
0ffff8
001800
201806
3fffff
601806
ef99e4
c01800
1f99f8
001800
000000
3fe7fc
30600c
30600c
3fe7fc
300000
300000
3fe7fc
30021c
300138
3fe0e0
3001b8
30061f
303806
ENDCHAR
STARTCHAR ch-292
ENCODING 292
SWIDTH 1000 0
DWIDTH 24 0
BBX 24 24 0 -3
BITMAP
000030
0ffff8
201800
201806
7fffff
601806
cf99f4
c01800
0f99f0
001800
20c00c
3fe7fe
30008c
30418c
7fe33c
382c18
000000
1ffff8
181818
1ffff8
181818
181818
1ffff8
180018
ENDCHAR
STARTCHAR ch-295
ENCODING 295
SWIDTH 1000 0
DWIDTH 24 0
BBX 24 24 0 -3
BITMAP
000060
0ffff0
201806
3fffff
601806
cf99f4
c01800
0f99f0
001800
000400
7fc60c
0187fe
060c30
025260
ffe180
076370
0f4c1f
0b3186
130ff8
230318
c30218
030430
1f08f0
063060
ENDCHAR
STARTCHAR ch-298
ENCODING 298
SWIDTH 1000 0
DWIDTH 24 0
BBX 24 24 0 -3
BITMAP
000030
0ffff8
201800
201806
7fffff
601806
cf99f4
c01800
0f99f0
001808
3000fc
0e7fc8
062210
c01110
38113c
187ff0
020300
0c0306
f9ffff
700300
300300
30030c
38fffe
180000
ENDCHAR
STARTCHAR ch-304
ENCODING 304
SWIDTH 1000 0
DWIDTH 24 0
BBX 24 24 0 -3
BITMAP
000030
0ffff8
201800
201806
7fffff
601806
cf99f4
c01800
0f99f0
001800
108200
7fe380
108306
fff3ff
000610
3fc51c
204918
3fc0b0
2040b0
3fc060
2040f0
20419f
23c30e
20cc06
ENDCHAR
STARTCHAR ch-306
ENCODING 306
SWIDTH 1000 0
DWIDTH 24 0
BBX 24 24 0 -3
BITMAP
000030
0ffff8
101800
101806
3fffff
301806
6799e4
601800
0799e0
001800
000400
3fc618
30c7fc
30c430
3fca60
0611c0
260370
27c61f
260c06
2637f8
260618
ffc618
7807f8
400618
ENDCHAR
STARTCHAR ch-312
ENCODING 312
SWIDTH 1000 0
DWIDTH 24 0
BBX 24 24 0 -3
BITMAP
000030
0ffff8
201806
3fffff
601806
c01804
cf99f0
001800
1f99f8
000000
10820c
fffbfe
10830c
1f830c
0603fc
7fe30c
46230c
4623fc
7fe30c
06030c
fff60c
06060c
060c7c
063018
ENDCHAR
STARTCHAR ch-313
ENCODING 313
SWIDTH 1000 0
DWIDTH 24 0
BBX 24 24 0 -3
BITMAP
000030
0ffff8
201800
201806
7fffff
601806
cf99f4
c01800
0f99f0
001800
20c0e0
3fe0c4
30cffe
30c210
3fc110
300122
301fff
30c0c0
3fe0c4
78cffe
58c0c0
58c0c0
9fc0c0
18c0c0
ENDCHAR
STARTCHAR ch-317
ENCODING 317
SWIDTH 1000 0
DWIDTH 24 0
BBX 24 24 0 -3
BITMAP
000030
0ffff8
201802
7fffff
601806
cf99f4
c01800
0f99f0
000000
001806
ffffff
004200
7f26fc
091890
111888
2718e4
c318c3
180018
1ffff8
180018
1ffff8
180018
300018
c00018
ENDCHAR
STARTCHAR ch-318
ENCODING 318
SWIDTH 1000 0
DWIDTH 24 0
BBX 24 24 0 -3
BITMAP
000030
0ffff8
201800
201806
7fffff
601806
cf99f4
c01800
0f99f0
041800
0e0000
308ffc
c9c8c4
2308c4
0c0ffc
3208c4
c508c4
090ffc
3380c0
c59ffe
0980c0
3180c0
c7bfff
030000
ENDCHAR
STARTCHAR ch-322
ENCODING 322
SWIDTH 1000 0
DWIDTH 24 0
BBX 24 24 0 -3
BITMAP
000030
0ffff8
201802
7fffff
601806
cf99f4
c01800
0f99f0
000000
20000c
3ffffe
300000
304040
37fbfc
30c0d0
317148
365246
200000
200c10
638ff8
430c00
830c06
3fffff
000000
ENDCHAR
STARTCHAR ch-324
ENCODING 324
SWIDTH 1000 0
DWIDTH 24 0
BBX 24 24 0 -3
BITMAP
000030
0ffff8
201800
201806
7fffff
601806
cf99f4
c01800
0f99f0
001800
000000
3f87f8
000408
ffe7f8
000408
3f87f8
000302
3f87ff
000c02
3fb4c2
208702
208426
3f83fe
20800c
ENDCHAR
STARTCHAR ch-326
ENCODING 326
SWIDTH 1000 0
DWIDTH 24 0
BBX 24 24 0 -3
BITMAP
010030
3f9020
0409fc
444c24
7fec24
c443ff
c44024
358024
0401fc
040020
358224
0439a6
0008ac
7f8830
000868
000ba4
ffc926
180826
1208e0
110860
211c00
fff7ff
79b1fe
41a000
ENDCHAR
STARTCHAR ch-328
ENCODING 328
SWIDTH 1000 0
DWIDTH 24 0
BBX 24 24 0 -3
BITMAP
000030
0ffff8
201802
7fffff
601806
cf99f4
c01800
0f99f0
000000
3e7e7c
224244
224244
3e7e7c
000000
000000
3ffffc
041840
061860
0c18c0
0b18b0
111910
001806
ffffff
000000
ENDCHAR
STARTCHAR ch-329
ENCODING 329
SWIDTH 1000 0
DWIDTH 24 0
BBX 24 24 0 -3
BITMAP
01000c
3f807e
040fc8
444488
7fd252
c45fff
c43102
35b0c4
040248
040a06
359a12
0411f0
000200
7f8308
0003fc
000608
ffc518
1809b0
1210e0
110040
2100e0
ff81b8
79861f
419806
ENDCHAR
STARTCHAR ch-338
ENCODING 338
SWIDTH 1000 0
DWIDTH 24 0
BBX 24 24 0 -3
BITMAP
001c00
001800
001818
3ffffc
001800
001830
1ffff8
001800
001806
ffffff
000000
040060
07fff0
060060
060060
07ffe0
060060
060060
07ffe0
060060
060060
060060
0603e0
0600c0
ENDCHAR
STARTCHAR ch-342
ENCODING 342
SWIDTH 1000 0
DWIDTH 24 0
BBX 24 24 0 -3
BITMAP
0e01c0
0c0180
0c0184
0c3ffe
0c0180
ffc188
001ffc
020180
438182
237fff
230000
330000
321ff8
321818
061818
041ff8
079818
fc1818
701ff8
401818
001818
001818
001878
001830
ENDCHAR
STARTCHAR ch-345
ENCODING 345
SWIDTH 1000 0
DWIDTH 24 0
BBX 24 24 0 -3
BITMAP
070100
060198
0621fc
fff318
060230
064420
7fe84c
0607fe
0620cc
fff0cc
0000cc
20cfff
3fe0cc
30c0cc
30c0cc
3fc7fc
30c0cc
30c0c0
3fc0c0
30c0c0
30c0c0
30c0c0
33c7c0
318180
ENDCHAR
STARTCHAR ch-348
ENCODING 348
SWIDTH 1000 0
DWIDTH 24 0
BBX 24 24 0 -3
BITMAP
070018
06007c
0627c0
fff104
0608c6
06464c
7fe208
060010
0627fc
fff0cc
0000cc
20c0cc
3fefff
30c0cc
30c0cc
3fc0cc
30c7fc
30c0c0
3fc0c0
30c0c0
30c0c0
30c0c0
33c7c0
318180
ENDCHAR
STARTCHAR ch-350
ENCODING 350
SWIDTH 1000 0
DWIDTH 24 0
BBX 24 24 0 -3
BITMAP
00e380
00c300
00c300
00c300
00c30c
ffc3fe
00c300
00c300
00c300
00c30c
7fc3fe
00c300
00c300
00c300
07c300
fd8306
7183ff
418300
030300
030300
060300
0c0300
180300
600300
ENDCHAR
STARTCHAR ch-352
ENCODING 352
SWIDTH 1000 0
DWIDTH 24 0
BBX 24 24 0 -3
BITMAP
041c00
071800
061830
0ffff8
101800
001806
ffffff
000000
0ffff0
0c0030
0c0030
0ffff0
000000
00c304
7fc3fe
00c300
7fc304
00c3fe
00c300
ff8302
7183ff
030300
0c0300
700300
ENDCHAR
STARTCHAR ch-353
ENCODING 353
SWIDTH 1000 0
DWIDTH 24 0
BBX 24 24 0 -3
BITMAP
000e00
200c06
3fffff
300000
30c0c0
308884
3ffffe
31c1a0
32b298
34948f
388886
308000
3039c0
303184
37f1fe
303180
27f184
6031fe
60f180
4f2182
4461ff
80c180
018180
060180
ENDCHAR
STARTCHAR ch-354
ENCODING 354
SWIDTH 1000 0
DWIDTH 24 0
BBX 24 24 0 -3
BITMAP
000000
000006
ffffff
003800
003000
002000
20400c
3ffffe
30c30c
30c30c
30c30c
30ff0c
30c30c
30c30c
30c30c
30c30c
30ff0c
30c30c
30c30c
30c30c
30c30c
3ffffc
30000c
30000c
ENDCHAR
STARTCHAR ch-356
ENCODING 356
SWIDTH 1000 0
DWIDTH 24 0
BBX 24 24 0 -3
BITMAP
003100
fff9c0
060180
060180
040106
0403ff
482206
7ff206
492426
4927f6
492826
492026
4f2026
492226
4923e6
49230c
49230c
4f233c
492318
492302
492302
492303
7fe3ff
4021fe
ENDCHAR
STARTCHAR ch-358
ENCODING 358
SWIDTH 1000 0
DWIDTH 24 0
BBX 24 24 0 -3
BITMAP
00620c
fff3fe
06030c
06030c
04030c
0403fc
48230c
7ff30c
49230c
49230c
4923fc
49230c
4f230c
49230c
49230c
4923fc
492130
4f21b0
4921b0
492132
492332
492233
7fe43f
40281e
ENDCHAR
STARTCHAR ch-360
ENCODING 360
SWIDTH 1000 0
DWIDTH 24 0
BBX 24 24 0 -3
BITMAP
20000c
3ffffe
300010
37f1c8
341188
37f182
341fff
37f1a0
300190
27f118
64130c
47f20f
441406
87f000
041006
ffffff
001800
1ffff8
188118
18ff18
188118
18ff18
188118
1ffff8
ENDCHAR
STARTCHAR ch-361
ENCODING 361
SWIDTH 1000 0
DWIDTH 24 0
BBX 24 24 0 -3
BITMAP
01c1c0
018180
018186
ffffff
018180
018180
018180
01ff80
001800
081830
0ffff8
0c1830
0c1830
0c1830
0c1830
0ffff0
0c1830
001800
001806
ffffff
001800
001800
001800
001800
ENDCHAR
STARTCHAR ch-363
ENCODING 363
SWIDTH 1000 0
DWIDTH 24 0
BBX 24 24 0 -3
BITMAP
1dc000
19800c
19affe
fff20c
19828c
19824c
1f824c
060248
466118
7ff118
666110
666110
6660b0
6660a0
7fe0e0
666040
0600e0
0660a0
fff1b0
060110
060318
06020c
06040f
061806
ENDCHAR
STARTCHAR ch-365
ENCODING 365
SWIDTH 1000 0
DWIDTH 24 0
BBX 24 24 0 -3
BITMAP
1dc000
198006
19b7ff
fff8c6
1980c6
1980c6
1f80c6
0600c6
4664c6
7ff2c6
6661c6
6660c6
6660e6
6660e6
7fe0b6
6661b6
060186
066106
fff306
06020e
06060c
06040c
06087c
063018
ENDCHAR
STARTCHAR ch-369
ENCODING 369
SWIDTH 1000 0
DWIDTH 24 0
BBX 24 24 0 -3
BITMAP
1dc000
19800c
198ffe
fff18c
19818c
19818c
1f818c
06058c
46658c
7ff38c
66638c
66618c
66618c
66614c
7fe148
666328
060338
06321c
fffa1f
060616
060430
060c30
0609f0
061060
ENDCHAR
STARTCHAR ch-372
ENCODING 372
SWIDTH 1000 0
DWIDTH 24 0
BBX 24 24 0 -3
BITMAP
1dc270
1983e0
199360
fffb60
198360
198364
1f8667
060666
46666c
7fe668
666e70
666e60
667660
666660
7fe660
666660
060660
066660
fff662
060662
060662
060663
06067f
06063e
ENDCHAR
STARTCHAR ch-377
ENCODING 377
SWIDTH 1000 0
DWIDTH 24 0
BBX 24 24 0 -3
BITMAP
3b80e0
3300c0
3340c0
ffe0c0
3300c0
3308c6
3f0fff
0c0cc6
4c8cc6
7fccc6
4c8cc6
4c8ca6
4c8db6
4c8d16
7f8d1e
4c8e1e
0c0c06
0c4c06
ffec06
0c0c06
0c0c06
0c0c06
0c0c1e
0c0c0c
ENDCHAR
STARTCHAR ch-378
ENCODING 378
SWIDTH 1000 0
DWIDTH 24 0
BBX 24 24 0 -3
BITMAP
1dc0e0
1980c0
19a0c0
fff0c0
1980c6
199fff
1f80c0
0600c0
4660c0
7ff0c0
6660cc
666ffe
6661d0
6661d0
7fe1d0
6663c8
0603c8
0662cc
fff6cc
0604c7
0608c6
0610c6
0600c0
0600c0
ENDCHAR
STARTCHAR ch-380
ENCODING 380
SWIDTH 1000 0
DWIDTH 24 0
BBX 24 24 0 -3
BITMAP
1dc000
19820c
19a3fe
fff30c
19830c
19830c
1f830c
06030c
46630c
7ff3fc
66630c
66630c
66630c
66630c
7fe30c
66630c
0603fc
06630c
fff000
060000
060000
060006
060fff
060000
ENDCHAR
STARTCHAR ch-385
ENCODING 385
SWIDTH 1000 0
DWIDTH 24 0
BBX 24 24 0 -3
BITMAP
3b80e0
3300c0
3340c0
ffe0c0
3310c6
331fff
3f18c6
0c18c4
4c98c8
7fd8c0
4c98cc
4c9ffe
4c9a0c
4c9a0c
7f9918
4c9918
0c18b0
0c58e0
fff040
0c10e0
0c31b8
0c231f
0c460e
0c1806
ENDCHAR
STARTCHAR ch-388
ENCODING 388
SWIDTH 1000 0
DWIDTH 24 0
BBX 24 24 0 -3
BITMAP
1dc200
198380
19a300
fff300
198306
1983ff
1f8606
060606
466466
7feff6
667066
666066
666066
666466
7fe7e6
66660c
06060c
06667c
fff618
060602
060602
060603
0607ff
0603fe
ENDCHAR
STARTCHAR ch-389
ENCODING 389
SWIDTH 1000 0
DWIDTH 24 0
BBX 24 24 0 -3
BITMAP
3b80e0
3300c0
3340c0
ffe0c0
3300c0
3308c4
3f0ffe
0c08c4
4c88c4
7fc8c4
4c88c4
4c88c4
4c88c4
4cbfff
7f81a0
4c81a0
0c01a0
0c4310
ffe310
0c0218
0c060c
0c040f
0c0806
0c3006
ENDCHAR
STARTCHAR ch-390
ENCODING 390
SWIDTH 1000 0
DWIDTH 24 0
BBX 24 24 0 -3
BITMAP
3b8006
331fff
3340c0
ffe0c0
3300c0
3300c0
3f08c6
0c0fff
4c8cc6
7fccc6
4c8cc6
4c8ca6
4c8db6
4c8d16
7f8d1e
4c8e1e
0c0c06
0c4c06
ffec06
0c0c06
0c0c06
0c0c06
0c0c1e
0c0c0c
ENDCHAR
STARTCHAR ch-395
ENCODING 395
SWIDTH 1000 0
DWIDTH 24 0
BBX 24 24 0 -3
BITMAP
1dc0e0
1980c0
19a0c0
fff0cc
198ffe
1980c0
1f80c0
0600c0
4660c6
7fffff
666000
666000
6660e0
6660c0
7fe0cc
666ffe
0600c0
0660c0
fff0c0
0600c0
0600c0
0600c6
061fff
060000
ENDCHAR
STARTCHAR ch-397
ENCODING 397
SWIDTH 1000 0
DWIDTH 24 0
BBX 24 24 0 -3
BITMAP
1dc0e0
1980c0
19a4c0
fff4c6
198fff
198c06
1f9904
0619c8
466180
7fe180
666186
667fff
666318
666318
666318
7fe630
666630
060db0
066c60
fff070
0600dc
06018e
060606
061806
ENDCHAR
STARTCHAR ch-399
ENCODING 399
SWIDTH 1000 0
DWIDTH 24 0
BBX 24 24 0 -3
BITMAP
001060
019ff0
ffd860
0c1c62
0c1b62
0c1163
0fa07f
fc403e
600000
01818c
7ffffe
018180
018180
01ff80
001800
0ffff0
0c1830
0c1830
0ffff0
001806
ffffff
001800
001800
001800
ENDCHAR
STARTCHAR ch-400
ENCODING 400
SWIDTH 1000 0
DWIDTH 24 0
BBX 24 24 0 -3
BITMAP
1dc0e0
1980c0
19a0c0
fff0cc
1980fe
1980c0
1f80c0
0600c0
4660c6
7fefff
666000
666000
666006
666fff
7fe0c0
6660c0
0600f0
0660cc
fff0c6
0600c6
0600c0
0600c0
0600c0
0600c0
ENDCHAR
STARTCHAR ch-408
ENCODING 408
SWIDTH 1000 0
DWIDTH 24 0
BBX 24 24 0 -3
BITMAP
1dc0e4
1988c7
1984c6
fff6cc
1986c8
1986d0
1f80c0
0604cc
4667fe
7ff60c
66660c
66660c
6667fc
66660c
7fe60c
66660c
0607fc
06660c
fff60c
06060c
06060c
06060c
06063c
060618
ENDCHAR
STARTCHAR ch-412
ENCODING 412
SWIDTH 1000 0
DWIDTH 24 0
BBX 24 24 0 -3
BITMAP
1dc070
198060
19a064
fff166
198fec
198170
1f8170
060268
46626c
7fe467
666862
6661e0
6660c0
66640c
7fe7fe
66660c
06060c
06660c
fff7fc
06060c
06060c
06060c
0607fc
06060c
ENDCHAR
STARTCHAR ch-416
ENCODING 416
SWIDTH 1000 0
DWIDTH 24 0
BBX 24 24 0 -3
BITMAP
1dc200
198380
19a300
fff606
1987ff
198c06
1f8886
061496
466496
7fe2a6
6662a6
666086
667ffe
666186
7fe3c6
6663a6
0602a6
0666b6
fff4b6
060886
06108c
06208c
0600fc
060098
ENDCHAR
STARTCHAR ch-419
ENCODING 419
SWIDTH 1000 0
DWIDTH 24 0
BBX 24 24 0 -3
BITMAP
3b8018
330ffc
334010
ffe320
3300c0
330046
3f1fff
0c02c6
4c86c4
7fc4c8
4c88c0
4c90c0
4ca000
4c80c0
7f80c6
4c9fff
0c01d0
0c41d0
ffe3c8
0c02cc
0c04cf
0c08c6
0c30c6
0c00c0
ENDCHAR
STARTCHAR ch-422
ENCODING 422
SWIDTH 1000 0
DWIDTH 24 0
BBX 24 24 0 -3
BITMAP
330238
220f30
223830
ff8830
220832
2208b3
3e08b6
087fb4
4908b8
7f89b0
4909b0
491930
491c30
491a28
7f3b28
492928
082828
084868
ff8844
080844
080846
080886
080883
080902
ENDCHAR
STARTCHAR ch-424
ENCODING 424
SWIDTH 1000 0
DWIDTH 24 0
BBX 24 24 0 -3
BITMAP
3b8818
330ffc
334c18
ffec18
330ff8
330c18
3f0c18
0c0c18
4c8ff8
7fc300
4c8600
4c8406
4c8fff
4c9806
7fac86
4c89c6
0c0e06
0c4846
ffe866
0c0fe6
0c07ce
0c000c
0c007c
0c0018
ENDCHAR
STARTCHAR ch-427
ENCODING 427
SWIDTH 1000 0
DWIDTH 24 0
BBX 24 24 0 -3
BITMAP
3b8800
330e00
ffec00
330c06
330fff
331806
3f1006
0c3fc6
4c8006
7fbfe6
4c8006
4c9fc6
4c8006
4c9fc6
7f8006
4c90c6
0c1fe6
0c98c6
ffd8c6
0c1fce
0c18cc
0c000c
0c007c
0c0018
ENDCHAR
STARTCHAR ch-429
ENCODING 429
SWIDTH 1000 0
DWIDTH 24 0
BBX 24 24 0 -3
BITMAP
3b8806
330dff
330c30
ffec30
330d32
3309ff
3f0932
0c1932
4c9932
7f99fe
4ca932
4ca932
4cc932
4c89fe
4c8932
7f8830
4c0930
0c4920
ffe8a0
0c0860
0c0870
0c085f
0c088e
0c0b06
ENDCHAR
STARTCHAR ch-435
ENCODING 435
SWIDTH 1000 0
DWIDTH 24 0
BBX 24 24 0 -3
BITMAP
1dc39c
198318
19a31a
ffffff
198318
198318
1f80c0
0600c0
4661a0
7fe318
66660f
667806
6661f0
666000
7fe000
66640c
0607fe
06660c
fff60c
06060c
06060c
06060c
0607fc
06060c
ENDCHAR
STARTCHAR ch-436
ENCODING 436
SWIDTH 1000 0
DWIDTH 24 0
BBX 24 24 0 -3
BITMAP
3b839c
330318
332318
ffffff
330318
330318
3f1000
0c1fff
4c9800
7fd800
4c9bfe
4c9a22
4c9a22
4c9a22
7f9bfe
4c9a22
0c1a22
0cd222
fff3fe
0c1222
0c2222
0c2222
0c422e
0c0226
ENDCHAR
STARTCHAR ch-451
ENCODING 451
SWIDTH 1000 0
DWIDTH 24 0
BBX 24 24 0 -3
BITMAP
3b8030
332020
3313fe
ffd820
331820
3307ff
3f0004
0c0106
4c8084
7f8088
4c93fe
4cf820
4c9020
4c93fe
7f9020
4c1020
0c17ff
0c9020
ffd020
0c1020
0c3800
0ce7ff
0c61fe
0c4000
ENDCHAR
STARTCHAR ch-454
ENCODING 454
SWIDTH 1000 0
DWIDTH 24 0
BBX 24 24 0 -3
BITMAP
330006
224fff
222090
ffb090
2237fe
220492
3e0492
0807fe
490080
7f8fff
492108
49f204
4927f7
492812
7f2010
4923f0
082204
082206
ffa1fe
082000
087000
09cfff
08c3fe
088000
ENDCHAR
STARTCHAR ch-456
ENCODING 456
SWIDTH 1000 0
DWIDTH 24 0
BBX 24 24 0 -3
BITMAP
3b871c
330618
333fff
ffc618
330618
330000
3f1ffe
0c1222
4c9222
7fdffe
4c8008
4c8064
4c9064
4c9fff
7f9860
4c9864
0c1826
0c5f2c
fff838
0c1812
0c103a
0c306e
0c2187
0c4603
ENDCHAR
STARTCHAR ch-459
ENCODING 459
SWIDTH 1000 0
DWIDTH 24 0
BBX 24 24 0 -3
BITMAP
007000
006000
006060
1ffff0
00c060
00c066
ffffff
000000
000000
07ffe0
060060
060060
07ffe0
000600
000618
3ffffc
060600
060600
060606
ffffff
000600
000600
000600
000600
ENDCHAR
STARTCHAR ch-467
ENCODING 467
SWIDTH 1000 0
DWIDTH 24 0
BBX 24 24 0 -3
BITMAP
0e01c0
0c0198
0ccffc
ffe318
0c0318
4cc318
7fffff
60c000
60c000
60cffc
7fcc0c
60cc0c
60cffc
60c060
7fc064
6cdffe
0c0660
0cc660
ffe660
0c0662
0c3fff
0c0060
0c0060
0c0060
ENDCHAR
STARTCHAR ch-476
ENCODING 476
SWIDTH 1000 0
DWIDTH 24 0
BBX 24 24 0 -3
BITMAP
0e000c
0c007e
7fcfe0
18c084
18c847
18c446
fff466
000664
00060c
3fc008
204100
204b86
3fce3f
030c06
030c06
7fcd06
230f9e
230c06
230c06
ffec06
030c06
030ffe
030c06
030c06
ENDCHAR
STARTCHAR ch-493
ENCODING 493
SWIDTH 1000 0
DWIDTH 24 0
BBX 24 24 0 -3
BITMAP
00e380
00c300
00c300
00c300
00c30c
7fc3fe
00c300
00c300
00c300
00c318
3fc3fc
00c300
00c300
00c300
00c300
00c318
3fc3fc
00c300
00c300
00c300
00c300
00c306
ffffff
000000
ENDCHAR
STARTCHAR ch-494
ENCODING 494
SWIDTH 1000 0
DWIDTH 24 0
BBX 24 24 0 -3
BITMAP
00e380
00c300
00c306
ffffff
00c300
000000
00e380
00c300
00c318
3fc3fc
00c300
00c300
00c318
3fc3fc
00c300
00c300
00c30c
7fc3fe
00c300
00c300
00c300
00c306
ffffff
000000
ENDCHAR
STARTCHAR ch-498
ENCODING 498
SWIDTH 1000 0
DWIDTH 24 0
BBX 24 24 0 -3
BITMAP
001c00
001806
ffffff
000000
008206
7e677c
122448
321848
221844
4e19e7
841882
000000
00c308
3fc3fc
00c300
00c308
3fc3fc
00c300
00c308
3fc3fc
00c300
00c302
ffffff
000000
ENDCHAR
STARTCHAR ch-499
ENCODING 499
SWIDTH 1000 0
DWIDTH 24 0
BBX 24 24 0 -3
BITMAP
001c00
001800
001818
3ffffc
020080
0100e0
0180c0
018080
000106
ffffff
000000
000000
040060
07fff0
060060
060060
060060
07ffe0
060060
060060
060060
07ffe0
060060
060060
ENDCHAR
STARTCHAR ch-501
ENCODING 501
SWIDTH 1000 0
DWIDTH 24 0
BBX 24 24 0 -3
BITMAP
070200
060380
066300
7ff300
008300
20e306
10c3ff
198206
190606
026406
fff446
000be6
20c006
3fe006
30c006
30c0e6
30c78e
3fc20c
30c00c
30c00c
30c01c
3fc018
30c0f8
300030
ENDCHAR
STARTCHAR ch-502
ENCODING 502
SWIDTH 1000 0
DWIDTH 24 0
BBX 24 24 0 -3
BITMAP
070000
060006
066fff
7ff186
008186
20e186
10c306
19830e
19020c
02667c
fff418
000800
20c000
3fe40c
30c7fe
30c60c
30c60c
3fc60c
30c60c
30c60c
30c60c
3fc7fc
30c60c
30060c
ENDCHAR
STARTCHAR ch-507
ENCODING 507
SWIDTH 1000 0
DWIDTH 24 0
BBX 24 24 0 -3
BITMAP
070406
0607ff
066606
7ff606
008606
20e7fe
10c000
198406
1907ff
023606
fffe06
0007fe
20c606
3fe606
30c7fe
30c606
30c606
3fc606
30c7fe
30c200
30c388
3fc306
30c603
301803
ENDCHAR
STARTCHAR ch-511
ENCODING 511
SWIDTH 1000 0
DWIDTH 24 0
BBX 24 24 0 -3
BITMAP
0c4246
0e7f7f
504266
247e66
374264
064268
087e64
124462
ff4263
664f63
0df36f
30c066
c01800
1ffff8
010180
018106
ffffff
000000
07ffe0
060060
07ffe0
060060
07ffe0
060060
ENDCHAR
ENDFONT
